<?xml version="1.0" encoding="utf-8"?>
<!-- Generator: Adobe Illustrator 24.2.3, SVG Export Plug-In . SVG Version: 6.00 Build 0)  -->
<svg version="1.1" id="Capa_1" xmlns="http://www.w3.org/2000/svg" xmlns:xlink="http://www.w3.org/1999/xlink" x="0px" y="0px"
	 viewBox="0 0 595.28 841.89" style="enable-background:new 0 0 595.28 841.89;" xml:space="preserve">
<style type="text/css">
	.st0{fill:#F1D439;}
	.st1{fill:#F23557;}
</style>
<g>
	<g>
		<path class="st0" d="M300.88,391.28l-0.02,5.87c0,1.03-0.69,2.29-1.51,2.78l-2.02,1.33l0.2,70.58l2.48-1.26
			c0.77-0.43,1.41-0.07,1.41,0.84l-0.02,5.12c0,0.9-0.64,2-1.41,2.42l-2.5,1.24l-0.05,10.59l39.96-21.84l0.36-10.75l-2.14,1.32
			c-0.79,0.44-1.43,0.03-1.4-0.89l0.14-5.25c0.02-0.93,0.7-2.03,1.5-2.47l2.19-1.33l2.49-73.68l-2.99,1.64
			c-0.85,0.5-1.53,0.04-1.5-1.02l0.16-6.04c0.03-1.07,0.76-2.34,1.61-2.85l3.04-1.65l0.41-12.19l-43.84,26.36l-0.06,11.55l2-1.35
			C300.2,389.83,300.88,390.24,300.88,391.28z M328.15,456.74l-0.12,5.23c-0.02,0.92-0.69,2.04-1.48,2.47l-4.44,2.45
			c-0.75,0.41-1.38,0.01-1.37-0.9l0.09-5.2c0.02-0.92,0.68-2.01,1.43-2.43l4.47-2.48C327.53,455.45,328.17,455.81,328.15,456.74z
			 M323.24,376.23l4.79-2.86c0.85-0.51,1.53-0.09,1.51,0.98l-0.13,6.01c-0.02,1.06-0.74,2.35-1.59,2.85l-4.76,2.82
			c-0.8,0.48-1.48,0.02-1.46-1.03l0.1-5.97C321.72,377.96,322.43,376.71,323.24,376.23z M314.71,464.12l-0.07,5.17
			c-0.01,0.91-0.67,2.02-1.44,2.45l-4.39,2.42c-0.77,0.43-1.38,0.01-1.37-0.89l0.04-5.14c0.01-0.91,0.62-1.97,1.4-2.4l4.42-2.45
			C314.08,462.84,314.72,463.2,314.71,464.12z M308.88,384.72l4.74-2.83c0.84-0.5,1.52-0.09,1.51,0.97l-0.08,5.94
			c-0.01,1.05-0.71,2.32-1.55,2.81l-4.71,2.79c-0.83,0.49-1.47,0.02-1.47-1.02l0.05-5.9C307.39,386.43,308.05,385.22,308.88,384.72z
			"/>
	</g>
	<g>
		<path class="st1" d="M295.39,390.21l2,1.49l0.03-11.58l-43.86-29.42l0.31,12.43l2.81,1.86c0.86,0.57,1.6,1.9,1.62,2.99l0.13,6.14
			c0.02,1.08-0.66,1.51-1.52,0.94l-2.79-1.84l2.96,74.08l2.38,1.46c0.79,0.49,1.47,1.62,1.49,2.54l0.12,5.21
			c0.02,0.92-0.61,1.28-1.4,0.79l-2.37-1.45l0.26,10.64l39.88,24.28l0.04-10.58l-2.48-1.37c-0.76-0.47-1.39-1.58-1.39-2.47
			l0.05-5.16c0-0.9,0.64-1.21,1.41-0.74l2.46,1.39l-0.2-70.59l-2.02-1.47c-0.83-0.54-1.5-1.85-1.5-2.9l0.05-5.84
			C293.87,390.02,294.56,389.66,295.39,390.21z M268.53,454.28l4.44,2.73c0.75,0.46,1.41,1.57,1.42,2.49l0.06,5.14
			c0.01,0.9-0.62,1.26-1.37,0.8l-4.41-2.69c-0.78-0.48-1.44-1.62-1.46-2.53l-0.09-5.18C267.1,454.12,267.74,453.79,268.53,454.28z
			 M272.9,377.59l0.07,6.05c0.01,1.06-0.68,1.48-1.48,0.95l-4.79-3.15c-0.85-0.56-1.57-1.91-1.58-2.98l-0.1-6.1
			c-0.02-1.08,0.68-1.47,1.53-0.9l4.83,3.2C272.18,375.21,272.89,376.52,272.9,377.59z M281.9,462.42l4.39,2.69
			c0.77,0.47,1.38,1.55,1.38,2.45l0,5.07c0,0.89-0.6,1.26-1.37,0.79l-4.36-2.65c-0.77-0.47-1.42-1.6-1.42-2.5l-0.03-5.11
			C280.48,462.25,281.12,461.94,281.9,462.42z M287.3,387.06l0,5.97c0,1.05-0.65,1.49-1.49,0.94l-4.72-3.11
			c-0.84-0.55-1.54-1.88-1.54-2.94l-0.03-6.01c-0.01-1.07,0.69-1.44,1.53-0.88l4.76,3.16C286.65,384.73,287.3,385.99,287.3,387.06z"
			/>
	</g>
</g>
</svg>
